Coordinates
version=1
nRows=15
nColumns=46
inDegrees=yes

Units are S.I. units (second, meters, Newtons, ...)
Angles are in degrees.

endheader
time	pelvis_tilt	pelvis_list	pelvis_rotation	pelvis_tx	pelvis_ty	pelvis_tz	bb_angle	bb_tx	bb_ty	bb_tz	hip_flexion_r	hip_adduction_r	hip_rotation_r	knee_angle_r	knee_angle_r_beta	ankle_angle_r	subtalar_angle_r	mtp_angle_r	crank_angle_r	hip_flexion_l	hip_adduction_l	hip_rotation_l	knee_angle_l	knee_angle_l_beta	ankle_angle_l	subtalar_angle_l	mtp_angle_l	crank_angle_l	lumbar_extension	lumbar_bending	lumbar_rotation	arm_flex_r	arm_add_r	arm_rot_r	elbow_flex_r	pro_sup_r	wrist_flex_r	wrist_dev_r	arm_flex_l	arm_add_l	arm_rot_l	elbow_flex_l	pro_sup_l	wrist_flex_l	wrist_dev_l
      7.50500000	    -15.99759966	     -0.18063321	      1.82842599	      0.07566486	      1.10120729	     -0.26305868	      0.00000000	      0.50000000	      0.00000000	      0.25000000	     58.78017817	     -0.99252907	      6.23072072	     50.26270959	      0.87724977	     -0.38077538	    -20.44236979	      0.00000000	      0.00000000	     74.32905688	     -0.47994681	      8.44892888	     99.97412181	      1.74487759	    -27.22431736	    -11.76992258	      0.00000000	      0.00000000	    -65.36045728	     -1.19052042	     -4.66502106	     89.63604333	    -23.28788496	     29.35644093	     70.33288948	     27.10942633	      0.00000000	      0.00000000	     89.65323662	    -30.40391732	     32.37009724	     79.14294781	     35.62991534	      0.00000000	      0.00000000
      7.51000000	    -15.97963490	      0.29465591	      2.48855540	      0.07618737	      1.10141657	     -0.26241955	      0.00000000	      0.50000000	      0.00000000	      0.25000000	     56.96021317	     -1.75449531	      6.50698354	     47.74321437	      0.83327629	     -1.39560285	    -20.38747463	      0.00000000	      0.00000000	     75.59092828	      0.16685334	      8.28974839	    101.63200950	      1.77381319	    -26.32450643	    -11.14224780	      0.00000000	      0.00000000	    -65.37368591	     -1.22590266	     -5.52044113	     89.62884718	    -23.29147105	     29.57056867	     69.76244536	     27.16945712	      0.00000000	      0.00000000	     89.66100547	    -30.25527689	     32.36283568	     79.23929342	     35.46764089	      0.00000000	      0.00000000
      7.51500000	    -16.22273984	      0.87651307	      3.08206616	      0.07659524	      1.10139099	     -0.26183877	      0.00000000	      0.50000000	      0.00000000	      0.25000000	     55.47283307	     -2.59763430	      6.80110165	     45.31747245	      0.79093910	     -2.08863365	    -19.73373225	      0.00000000	      0.00000000	     77.12881450	      0.80824534	      7.91616582	    103.19838753	      1.80115165	    -25.67904063	    -11.05730483	      0.00000000	      0.00000000	    -65.17858530	     -1.38315747	     -6.33297897	     89.60008812	    -23.46238035	     29.52567578	     69.62546382	     27.18085164	      0.00000000	      0.00000000	     89.66985894	    -29.99810248	     32.44310403	     79.31845071	     35.44855475	      0.00000000	      0.00000000
      7.52000000	    -16.14274531	      1.35991161	      3.72584440	      0.07710054	      1.10214317	     -0.26138422	      0.00000000	      0.50000000	      0.00000000	      0.25000000	     53.58884233	     -3.46644386	      6.78073843	     42.82281255	      0.74739907	     -3.34939671	    -19.48217538	      0.00000000	      0.00000000	     78.31006495	      1.40807177	      7.72052274	    104.71031055	      1.82753968	    -24.43736068	     -9.93529395	      0.00000000	      0.00000000	    -65.31517396	     -1.41300316	     -7.20911191	     89.60183744	    -23.35259091	     29.80481067	     68.82021623	     27.26265137	      0.00000000	      0.00000000	     89.67406918	    -29.83625778	     32.39657020	     79.44128324	     35.18862643	      0.00000000	      0.00000000
      7.52500000	    -16.44556797	      1.94057351	      4.29080561	      0.07740315	      1.10226466	     -0.26086384	      0.00000000	      0.50000000	      0.00000000	      0.25000000	     52.21827608	     -4.39246715	      6.82344382	     40.53990751	      0.70755486	     -4.18580538	    -18.66024165	      0.00000000	      0.00000000	     79.93155625	      1.96262302	      7.27955707	    106.12435263	      1.85221937	    -23.73228211	     -9.78476793	      0.00000000	      0.00000000	    -65.13191626	     -1.57907994	     -7.94937557	     89.57072791	    -23.50544546	     29.78827419	     68.65753827	     27.27037211	      0.00000000	      0.00000000	     89.68274086	    -29.56521806	     32.44637419	     79.55593871	     35.16149913	      0.00000000	      0.00000000
      7.53000000	    -16.46354269	      2.54617644	      5.03271556	      0.07780484	      1.10315519	     -0.26056282	      0.00000000	      0.50000000	      0.00000000	      0.25000000	     50.52854851	     -5.54110184	      6.43696837	     38.29826951	      0.66843090	     -5.23746943	    -17.89132495	      0.00000000	      0.00000000	     81.18860749	      2.64189214	      6.86932097	    107.39554282	      1.87440582	    -22.59405578	     -8.83080518	      0.00000000	      0.00000000	    -65.27039192	     -1.60650984	     -8.85451886	     89.56048410	    -23.63905999	     29.97580157	     68.11823228	     27.30413055	      0.00000000	      0.00000000	     89.68886132	    -29.24443059	     32.41326809	     79.70434047	     35.03825780	      0.00000000	      0.00000000
      7.53500000	    -16.63160711	      3.04209623	      5.62107423	      0.07801618	      1.10371775	     -0.26017708	      0.00000000	      0.50000000	      0.00000000	      0.25000000	     49.09405269	     -6.52148211	      5.98757056	     36.22517246	      0.63224853	     -6.05697472	    -16.74750443	      0.00000000	      0.00000000	     82.65540566	      3.16423805	      6.52796422	    108.62203739	      1.89581219	    -21.61309993	     -8.09941196	      0.00000000	      0.00000000	    -65.20582261	     -1.65103155	     -9.55162959	     89.54831686	    -23.70440759	     30.06707424	     67.66719903	     27.37394322	      0.00000000	      0.00000000	     89.69455465	    -28.97658493	     32.38122232	     79.81308945	     34.87178508	      0.00000000	      0.00000000
      7.54000000	    -17.03673639	      3.53002419	      6.02776621	      0.07820418	      1.10380303	     -0.25951801	      0.00000000	      0.50000000	      0.00000000	      0.25000000	     48.03413033	     -7.33904606	      5.60430080	     34.34666363	      0.59946237	     -6.85507930	    -15.75669452	      0.00000000	      0.00000000	     84.38185737	      3.40202519	      6.00427392	    109.77182390	      1.91587975	    -20.89492344	     -7.92410682	      0.00000000	      0.00000000	    -64.94088417	     -1.90360345	    -10.19303491	     89.51137700	    -23.87209622	     30.00350320	     67.54022401	     27.38405672	      0.00000000	      0.00000000	     89.70273639	    -28.70708447	     32.43740541	     79.90560552	     34.84556005	      0.00000000	      0.00000000
      7.54500000	    -17.13680705	      3.98489298	      6.67746333	      0.07833117	      1.10456335	     -0.25938958	      0.00000000	      0.50000000	      0.00000000	      0.25000000	     46.67372361	     -8.39777232	      4.68289825	     32.60581969	      0.56907891	     -7.79292625	    -14.25009930	      0.00000000	      0.00000000	     85.73458514	      3.91993545	      5.66374739	    110.78709869	      1.93359964	    -19.63652438	     -6.98067597	      0.00000000	      0.00000000	    -64.98747145	     -1.83390463	    -10.71795433	     89.51143457	    -24.10463633	     30.05520531	     67.03666568	     27.44038893	      0.00000000	      0.00000000	     89.70537860	    -28.29721750	     32.45641945	     80.05807094	     34.70346394	      0.00000000	      0.00000000
      7.55000000	    -17.35064476	      4.35209185	      7.13079462	      0.07858716	      1.10506407	     -0.25889843	      0.00000000	      0.50000000	      0.00000000	      0.25000000	     45.55366577	     -9.22345459	      3.74781865	     31.11568210	      0.54307110	     -8.50447767	    -12.77615229	      0.00000000	      0.00000000	     87.21551536	      4.17319414	      5.29447072	    111.72100653	      1.94989941	    -18.75024353	     -6.11139386	      0.00000000	      0.00000000	    -64.92222005	     -1.90069998	    -11.12991636	     89.49274188	    -24.32157820	     30.00530126	     66.76250382	     27.64520640	      0.00000000	      0.00000000	     89.70885768	    -27.88992529	     32.40970343	     80.11776521	     34.41734418	      0.00000000	      0.00000000
      7.55500000	    -17.71824398	      4.71275303	      7.47371148	      0.07855753	      1.10525976	     -0.25843197	      0.00000000	      0.50000000	      0.00000000	      0.25000000	     44.74340125	     -9.95379475	      2.94056578	     29.83587474	      0.52073425	     -9.44807543	    -11.60445628	      0.00000000	      0.00000000	     88.83187161	      4.32493850	      4.82702003	    112.49669371	      1.96343770	    -18.12862909	     -5.90878040	      0.00000000	      0.00000000	    -64.70517355	     -2.03352784	    -11.48520769	     89.45794561	    -24.52779279	     29.96164462	     66.61320930	     27.67643553	      0.00000000	      0.00000000	     89.71401298	    -27.61459451	     32.42397775	     80.27487763	     34.37615852	      0.00000000	      0.00000000
      7.56000000	    -17.96146698	      4.94119314	      7.88543090	      0.07843141	      1.10556541	     -0.25805025	      0.00000000	      0.50000000	      0.00000000	      0.25000000	     43.87121884	    -10.63604068	      1.86000030	     28.79997747	      0.50265443	    -10.11599420	    -10.27151608	      0.00000000	      0.00000000	     90.30715524	      4.50063023	      4.50605418	    113.15213747	      1.97487735	    -17.33897510	     -5.71521070	      0.00000000	      0.00000000	    -64.59256774	     -2.02525590	    -11.71729320	     89.44078520	    -24.77139676	     29.92061506	     66.41549487	     27.70983335	      0.00000000	      0.00000000	     89.71818674	    -27.30409097	     32.42225992	     80.45566076	     34.32627227	      0.00000000	      0.00000000
      7.56500000	    -18.09123758	      4.99793077	      8.44090065	      0.07859312	      1.10611500	     -0.25802194	      0.00000000	      0.50000000	      0.00000000	      0.25000000	     42.88829414	    -11.32683053	      0.28600162	     27.97684008	      0.48828797	    -10.26278873	     -8.38681198	      0.00000000	      0.00000000	     91.61225940	      4.89412316	      4.39966297	    113.66823773	      1.98388500	    -16.85030882	     -5.12460884	      0.00000000	      0.00000000	    -64.62558751	     -1.83255946	    -11.67185218	     89.43305423	    -25.34697013	     29.85612204	     66.11799730	     27.83280039	      0.00000000	      0.00000000	     89.72457768	    -26.66493842	     32.42537110	     80.73750838	     34.17540058	      0.00000000	      0.00000000
      7.57000000	    -18.37654445	      5.14263825	      8.64645179	      0.07846574	      1.10638767	     -0.25739382	      0.00000000	      0.50000000	      0.00000000	      0.25000000	     42.22921400	    -11.70228787	     -0.40542690	     27.26465055	      0.47585792	    -10.93727808	     -7.39693308	      0.00000000	      0.00000000	     93.00802252	      4.86367912	      4.06022991	    114.03712631	      1.99032332	    -16.40710792	     -5.13472096	      0.00000000	      0.00000000	    -64.48837442	     -1.91810201	    -11.74280888	     89.41442404	    -25.53771181	     29.77518524	     66.10241237	     27.88922521	      0.00000000	      0.00000000	     89.73123785	    -26.43048233	     32.38070247	     80.86358671	     34.12177120	      0.00000000	      0.00000000
      7.57500000	    -18.45211082	      5.17255576	      9.09646877	      0.07829193	      1.10690202	     -0.25723380	      0.00000000	      0.50000000	      0.00000000	      0.25000000	     41.43591538	    -12.20898599	     -1.64830506	     26.91380988	      0.46973460	    -11.06738286	     -5.90205042	      0.00000000	      0.00000000	     94.12520176	      5.16910775	      3.89457681	    114.22993648	      1.99368850	    -16.03976702	     -5.03993804	      0.00000000	      0.00000000	    -64.57462497	     -1.70725110	    -11.62280187	     89.41106288	    -26.08295215	     29.64347600	     66.06943706	     28.09011537	      0.00000000	      0.00000000	     89.73605685	    -25.91948424	     32.26071680	     81.22424307	     33.93183908	      0.00000000	      0.00000000
